<svg width="83" height="77" viewBox="0 0 83 77" fill="none" xmlns="http://www.w3.org/2000/svg">
<g clip-path="url(#clip0_3395_122765)">
<g opacity="0.7">
<path d="M69.8924 0.669922H55.4375V17.8045H69.8924V0.669922Z" fill="#F4F4F4"/>
<path d="M69.8924 17.8047H70.3613V0.670149H69.8924V17.8047Z" fill="#F4F4F4"/>
<path opacity="0.05" d="M69.8924 17.8047H70.3613V0.670149H69.8924V17.8047Z" fill="#292A2E"/>
<path opacity="0.05" d="M67.2589 4.09766H58.0703V14.3776H67.2589V4.09766Z" fill="#292A2E"/>
<path opacity="0.03" d="M67.2601 4.09766H66.7812V14.3776H67.2601V4.09766Z" fill="#292A2E"/>
<path d="M81.7143 22.4316H69.8926V34.3619H81.7143V22.4316Z" fill="#F4F4F4"/>
<path opacity="0.05" d="M79.5597 24.6055H72.0449V32.1892H79.5597V24.6055Z" fill="#292A2E"/>
<path d="M81.7147 34.3613H82.1836V22.431H81.7147V34.3613Z" fill="#F4F4F4"/>
<path opacity="0.05" d="M81.7147 34.3613H82.1836V22.431H81.7147V34.3613Z" fill="#292A2E"/>
<path opacity="0.03" d="M79.5609 24.6055H79.082V32.1892H79.5609V24.6055Z" fill="#292A2E"/>
</g>
<g opacity="0.7">
<path d="M40.2965 0H6.26562V34.0309H40.2965V0Z" fill="#F4F4F4"/>
<path d="M6.26506 0H5.875V34.0309H6.26506V0Z" fill="#F4F4F4"/>
<path opacity="0.05" d="M6.26506 0H5.875V34.0309H6.26506V0Z" fill="#292A2E"/>
<path opacity="0.05" d="M14.5095 23.4504V14.5469H21.8028V19.7196H33.1003V28.8788H37.9019V34.0313H33.1003H32.1753H7.90234V23.4504H14.5095Z" fill="#292A2E"/>
<path opacity="0.34" d="M20.8658 15.5137H15.5547V16.4804H20.8658V15.5137Z" fill="#FFFFFA"/>
<path opacity="0.34" d="M20.8658 17.5176H15.5547V18.4843H20.8658V17.5176Z" fill="#FFFFFA"/>
<path opacity="0.34" d="M20.8658 19.5195H15.5547V20.4862H20.8658V19.5195Z" fill="#FFFFFA"/>
<path opacity="0.34" d="M9.82264 24.3887H8.84375V25.3554H9.82264V24.3887Z" fill="#FFFFFA"/>
<path opacity="0.34" d="M9.82264 26.3926H8.84375V27.3593H9.82264V26.3926Z" fill="#FFFFFA"/>
<path opacity="0.34" d="M9.82264 28.3945H8.84375V29.3612H9.82264V28.3945Z" fill="#FFFFFA"/>
<path opacity="0.34" d="M11.6332 24.3887H10.6543V25.3554H11.6332V24.3887Z" fill="#FFFFFA"/>
<path opacity="0.34" d="M11.6332 26.3926H10.6543V27.3593H11.6332V26.3926Z" fill="#FFFFFA"/>
<path opacity="0.34" d="M11.6332 28.3945H10.6543V29.3612H11.6332V28.3945Z" fill="#FFFFFA"/>
<path opacity="0.34" d="M13.3949 24.3887H12.416V25.3554H13.3949V24.3887Z" fill="#FFFFFA"/>
<path opacity="0.34" d="M13.3949 26.3926H12.416V27.3593H13.3949V26.3926Z" fill="#FFFFFA"/>
<path opacity="0.34" d="M13.3949 28.3945H12.416V29.3612H13.3949V28.3945Z" fill="#FFFFFA"/>
<path d="M6.26562 16.8245H13.1132V0H13.6795V16.8245H32.1756V0H32.7419V16.8245H40.2965V17.3909H32.7419V34.0309H32.1756V17.3909H13.6795V34.0309H13.1132V17.3909H6.26562V16.8245Z" fill="white"/>
<path d="M41.6524 33.9902H4.91016V35.1219H41.6524V33.9902Z" fill="#F4F4F4"/>
<path opacity="0.1" d="M41.6524 33.9902H4.91016V35.1219H41.6524V33.9902Z" fill="#292A2E"/>
<path opacity="0.1" d="M4.90935 33.9902H4.37891V35.1219H4.90935V33.9902Z" fill="#292A2E"/>
<path opacity="0.1" d="M4.90935 33.9902H4.37891V35.1219H4.90935V33.9902Z" fill="#292A2E"/>
</g>
<path d="M25.9055 4.22656H65.7378C66.3116 4.22656 66.8619 4.45449 67.2676 4.86022C67.6733 5.26594 67.9013 5.81621 67.9013 6.38999V54.0977C67.9013 54.6839 67.6684 55.2462 67.2538 55.6607C66.8393 56.0753 66.2771 56.3081 65.6908 56.3081H25.9527C25.3664 56.3081 24.8042 56.0753 24.3896 55.6607C23.9751 55.2462 23.7422 54.6839 23.7422 54.0977V6.38974C23.7423 5.81602 23.9702 5.26582 24.3759 4.86016C24.7816 4.45449 25.3318 4.22658 25.9055 4.22656Z" fill="white"/>
<path d="M65.6908 56.3921H25.9527C25.3442 56.3921 24.7605 56.1504 24.3302 55.7201C23.8999 55.2898 23.6582 54.7062 23.6582 54.0976V6.30576C23.6582 5.73203 23.8862 5.18182 24.2919 4.77615C24.6976 4.37048 25.2478 4.14258 25.8215 4.14258H65.8219C66.3956 4.14258 66.9459 4.3705 67.3516 4.7762C67.7574 5.18191 67.9853 5.73216 67.9853 6.30592V54.0976C67.9853 54.7062 67.7436 55.2898 67.3133 55.7201C66.883 56.1504 66.2994 56.3921 65.6908 56.3921ZM23.8262 6.38615V54.0976C23.8262 54.3769 23.8812 54.6534 23.9881 54.9114C24.0949 55.1694 24.2516 55.4038 24.449 55.6013C24.6465 55.7987 24.8809 55.9554 25.1389 56.0622C25.3969 56.1691 25.6734 56.2241 25.9527 56.2241H65.6908C66.2548 56.2241 66.7957 56 67.1945 55.6012C67.5933 55.2025 67.8173 54.6616 67.8173 54.0976V6.36515C67.8173 6.09531 67.7641 5.82812 67.6608 5.57883C67.5575 5.32954 67.4061 5.10304 67.2153 4.91226C67.0244 4.72148 66.7979 4.57015 66.5486 4.46691C66.2993 4.36368 66.0321 4.31057 65.7622 4.3106H25.9019C25.3515 4.3106 24.8235 4.52927 24.4342 4.9185C24.045 5.30774 23.8263 5.83567 23.8262 6.38615Z" fill="#292A2E"/>
<path d="M32.3087 14.5831H27.4816C27.2126 14.5828 26.9546 14.4758 26.7644 14.2856C26.5742 14.0954 26.4672 13.8375 26.4668 13.5685V8.74132C26.4671 8.47229 26.5741 8.21436 26.7644 8.02412C26.9546 7.83389 27.2125 7.72687 27.4816 7.72656H32.3087C32.5777 7.72685 32.8357 7.83385 33.0259 8.02409C33.2162 8.21433 33.3232 8.47227 33.3235 8.74132V13.5685C33.3232 13.8376 33.2161 14.0955 33.0259 14.2857C32.8356 14.4759 32.5777 14.5828 32.3087 14.5831ZM27.4816 7.89441C27.2571 7.89468 27.0419 7.98398 26.8831 8.14271C26.7244 8.30145 26.6351 8.51667 26.6348 8.74115V13.5685C26.6351 13.793 26.7244 14.0082 26.8831 14.167C27.0419 14.3257 27.2571 14.415 27.4816 14.4153H32.3087C32.5332 14.415 32.7484 14.3258 32.9072 14.167C33.0659 14.0083 33.1553 13.793 33.1555 13.5685V8.74132C33.1553 8.51682 33.0659 8.30159 32.9072 8.14285C32.7484 7.98411 32.5332 7.89483 32.3087 7.89458L27.4816 7.89441Z" fill="#292A2E"/>
<path d="M32.3087 24.1458H27.4816C27.2125 24.1455 26.9546 24.0385 26.7644 23.8482C26.5741 23.658 26.4671 23.4001 26.4668 23.131V18.3039C26.4671 18.0349 26.5741 17.7769 26.7643 17.5867C26.9546 17.3964 27.2125 17.2894 27.4816 17.2891H32.3087C32.5778 17.2894 32.8357 17.3964 33.026 17.5866C33.2162 17.7769 33.3232 18.0348 33.3235 18.3039V23.131C33.3232 23.4001 33.2162 23.658 33.0259 23.8483C32.8357 24.0385 32.5777 24.1455 32.3087 24.1458ZM27.4816 17.4573C27.2571 17.4576 27.0418 17.5469 26.8831 17.7057C26.7243 17.8644 26.6351 18.0797 26.6348 18.3042V23.1313C26.6351 23.3558 26.7244 23.571 26.8831 23.7298C27.0418 23.8885 27.2571 23.9778 27.4816 23.978H32.3087C32.5332 23.9778 32.7484 23.8885 32.9072 23.7298C33.0659 23.571 33.1553 23.3558 33.1555 23.1313V18.3039C33.1553 18.0794 33.0659 17.8642 32.9072 17.7054C32.7484 17.5467 32.5332 17.4573 32.3087 17.4571L27.4816 17.4573Z" fill="#292A2E"/>
<path d="M32.3087 33.7102H27.4816C27.2125 33.7099 26.9546 33.6028 26.7644 33.4126C26.5741 33.2224 26.4671 32.9644 26.4668 32.6954V27.8683C26.4671 27.5992 26.5741 27.3413 26.7644 27.1511C26.9546 26.9608 27.2125 26.8538 27.4816 26.8535H32.3087C32.5777 26.8538 32.8357 26.9608 33.0259 27.151C33.2162 27.3413 33.3232 27.5992 33.3235 27.8683V32.6954C33.3232 32.9645 33.2162 33.2224 33.0259 33.4126C32.8357 33.6029 32.5777 33.7099 32.3087 33.7102ZM27.4816 27.0215C27.2571 27.0218 27.0418 27.1111 26.8831 27.2698C26.7244 27.4286 26.6351 27.6438 26.6348 27.8683V32.6954C26.6351 32.9199 26.7244 33.1351 26.8831 33.2939C27.0418 33.4526 27.2571 33.5419 27.4816 33.5422H32.3087C32.5332 33.5419 32.7484 33.4526 32.9072 33.2939C33.0659 33.1351 33.1553 32.9199 33.1555 32.6954V27.8683C33.1553 27.6438 33.0659 27.4285 32.9072 27.2698C32.7484 27.1111 32.5332 27.0218 32.3087 27.0215H27.4816Z" fill="#292A2E"/>
<path d="M32.3087 43.1419H27.4816C27.2125 43.1416 26.9546 43.0346 26.7644 42.8443C26.5741 42.6541 26.4671 42.3962 26.4668 42.1271V37.3C26.4671 37.031 26.5741 36.773 26.7643 36.5827C26.9546 36.3925 27.2125 36.2855 27.4816 36.2852H32.3087C32.5778 36.2855 32.8357 36.3925 33.026 36.5827C33.2162 36.773 33.3232 37.0309 33.3235 37.3V42.1271C33.3232 42.3962 33.2162 42.6541 33.0259 42.8444C32.8357 43.0346 32.5777 43.1416 32.3087 43.1419ZM27.4816 36.4532C27.257 36.4534 27.0418 36.5427 26.8831 36.7015C26.7243 36.8602 26.635 37.0755 26.6348 37.3V42.1271C26.6351 42.3516 26.7244 42.5668 26.8831 42.7256C27.0419 42.8843 27.2571 42.9736 27.4816 42.9739H32.3087C32.5332 42.9736 32.7484 42.8843 32.9072 42.7256C33.0659 42.5669 33.1553 42.3516 33.1555 42.1271V37.3C33.1553 37.0755 33.066 36.8602 32.9072 36.7015C32.7485 36.5427 32.5332 36.4534 32.3087 36.4532H27.4816Z" fill="#292A2E"/>
<path d="M32.3087 52.5735H27.4816C27.2125 52.5732 26.9546 52.4662 26.7643 52.2759C26.5741 52.0857 26.4671 51.8277 26.4668 51.5587V46.7316C26.4671 46.4626 26.5741 46.2046 26.7643 46.0144C26.9546 45.8241 27.2125 45.7171 27.4816 45.7168H32.3087C32.5778 45.7171 32.8357 45.8241 33.026 46.0144C33.2162 46.2046 33.3232 46.4626 33.3235 46.7316V51.5588C33.3232 51.8278 33.2162 52.0857 33.0259 52.276C32.8357 52.4662 32.5777 52.5732 32.3087 52.5735ZM27.4816 45.8847C27.2571 45.885 27.0418 45.9743 26.8831 46.1331C26.7243 46.2918 26.6351 46.5071 26.6348 46.7316V51.5587C26.6351 51.7832 26.7243 51.9984 26.8831 52.1572C27.0418 52.3159 27.2571 52.4052 27.4816 52.4055H32.3087C32.5332 52.4052 32.7484 52.3159 32.9072 52.1572C33.0659 51.9984 33.1553 51.7832 33.1555 51.5587V46.7316C33.1553 46.5071 33.0659 46.2919 32.9072 46.1331C32.7484 45.9744 32.5332 45.8851 32.3087 45.8848L27.4816 45.8847Z" fill="#292A2E"/>
<path d="M29.036 22.6493C28.9492 22.6494 28.8657 22.6158 28.8032 22.5555L27.3962 21.2029C27.3643 21.1724 27.3388 21.1358 27.3212 21.0954C27.3035 21.0549 27.2939 21.0114 27.293 20.9673C27.2922 20.9232 27.3 20.8793 27.3161 20.8382C27.3321 20.7971 27.3562 20.7596 27.3867 20.7278C27.4173 20.696 27.4539 20.6705 27.4943 20.6528C27.5347 20.6351 27.5782 20.6255 27.6224 20.6247C27.6665 20.6238 27.7104 20.6316 27.7515 20.6477C27.7926 20.6638 27.8301 20.6878 27.8619 20.7184L29.0303 21.8417L31.959 18.8862C32.0219 18.8239 32.1069 18.789 32.1954 18.7891C32.284 18.7891 32.3689 18.8241 32.4318 18.8864C32.4947 18.9487 32.5305 19.0333 32.5313 19.1218C32.5322 19.2103 32.4981 19.2956 32.4364 19.3592L29.2747 22.5495C29.2435 22.5811 29.2064 22.6062 29.1654 22.6234C29.1244 22.6405 29.0804 22.6494 29.036 22.6493Z" fill="#0CBC8B"/>
<path d="M29.036 32.2123C28.9492 32.2124 28.8657 32.1788 28.8032 32.1185L27.3962 30.766C27.3319 30.7042 27.2948 30.6194 27.293 30.5303C27.2913 30.4412 27.325 30.3551 27.3867 30.2908C27.4485 30.2265 27.5333 30.1895 27.6224 30.1877C27.7115 30.1859 27.7976 30.2196 27.8619 30.2814L29.0303 31.4044L31.959 28.4491C32.0217 28.3858 32.107 28.35 32.1962 28.3496C32.2853 28.3492 32.3709 28.3842 32.4342 28.4469C32.4975 28.5097 32.5333 28.595 32.5338 28.6841C32.5342 28.7732 32.4992 28.8589 32.4364 28.9222L29.2747 32.1125C29.2435 32.1441 29.2064 32.1692 29.1654 32.1864C29.1244 32.2035 29.0804 32.2123 29.036 32.2123Z" fill="#0CBC8B"/>
<path opacity="0.5" d="M64.2714 9.66016H35.961C35.8315 9.66016 35.7266 9.76513 35.7266 9.89463C35.7266 10.0241 35.8315 10.1291 35.961 10.1291H64.2714C64.4009 10.1291 64.5059 10.0241 64.5059 9.89463C64.5059 9.76513 64.4009 9.66016 64.2714 9.66016Z" fill="#262626"/>
<path opacity="0.5" d="M54.1902 12.1797H35.961C35.8315 12.1797 35.7266 12.2847 35.7266 12.4142C35.7266 12.5437 35.8315 12.6486 35.961 12.6486H54.1902C54.3197 12.6486 54.4247 12.5437 54.4247 12.4142C54.4247 12.2847 54.3197 12.1797 54.1902 12.1797Z" fill="#262626"/>
<path opacity="0.5" d="M64.2714 19.2246H35.961C35.8315 19.2246 35.7266 19.3296 35.7266 19.4591C35.7266 19.5886 35.8315 19.6936 35.961 19.6936H64.2714C64.4009 19.6936 64.5059 19.5886 64.5059 19.4591C64.5059 19.3296 64.4009 19.2246 64.2714 19.2246Z" fill="#262626"/>
<path opacity="0.5" d="M54.1902 21.7441H35.961C35.8315 21.7441 35.7266 21.8491 35.7266 21.9786C35.7266 22.1081 35.8315 22.2131 35.961 22.2131H54.1902C54.3197 22.2131 54.4247 22.1081 54.4247 21.9786C54.4247 21.8491 54.3197 21.7441 54.1902 21.7441Z" fill="#262626"/>
<path opacity="0.5" d="M64.2714 28.7871H35.961C35.8315 28.7871 35.7266 28.8921 35.7266 29.0216C35.7266 29.1511 35.8315 29.2561 35.961 29.2561H64.2714C64.4009 29.2561 64.5059 29.1511 64.5059 29.0216C64.5059 28.8921 64.4009 28.7871 64.2714 28.7871Z" fill="#262626"/>
<path opacity="0.5" d="M54.1902 31.3066H35.961C35.8315 31.3066 35.7266 31.4116 35.7266 31.5411C35.7266 31.6706 35.8315 31.7756 35.961 31.7756H54.1902C54.3197 31.7756 54.4247 31.6706 54.4247 31.5411C54.4247 31.4116 54.3197 31.3066 54.1902 31.3066Z" fill="#262626"/>
<path opacity="0.5" d="M64.2714 38.2188H35.961C35.8315 38.2188 35.7266 38.3237 35.7266 38.4532C35.7266 38.5827 35.8315 38.6877 35.961 38.6877H64.2714C64.4009 38.6877 64.5059 38.5827 64.5059 38.4532C64.5059 38.3237 64.4009 38.2188 64.2714 38.2188Z" fill="#262626"/>
<path opacity="0.5" d="M54.1902 40.7402H35.961C35.8315 40.7402 35.7266 40.8452 35.7266 40.9747C35.7266 41.1042 35.8315 41.2092 35.961 41.2092H54.1902C54.3197 41.2092 54.4247 41.1042 54.4247 40.9747C54.4247 40.8452 54.3197 40.7402 54.1902 40.7402Z" fill="#262626"/>
<path opacity="0.5" d="M64.2714 47.6523H35.961C35.8315 47.6523 35.7266 47.7573 35.7266 47.8868C35.7266 48.0163 35.8315 48.1213 35.961 48.1213H64.2714C64.4009 48.1213 64.5059 48.0163 64.5059 47.8868C64.5059 47.7573 64.4009 47.6523 64.2714 47.6523Z" fill="#262626"/>
<path opacity="0.5" d="M54.1902 50.1719H35.961C35.8315 50.1719 35.7266 50.2769 35.7266 50.4063C35.7266 50.5358 35.8315 50.6408 35.961 50.6408H54.1902C54.3197 50.6408 54.4247 50.5358 54.4247 50.4063C54.4247 50.2769 54.3197 50.1719 54.1902 50.1719Z" fill="#262626"/>
<path d="M28.7931 12.8728C28.8175 12.8126 28.861 12.7621 28.9169 12.7289C28.9727 12.6957 29.0379 12.6817 29.1025 12.6889C29.1025 12.6837 29.0979 12.6711 29.107 12.6712L28.897 12.5384C28.8342 12.5007 28.7872 12.4414 28.7647 12.3717C28.7422 12.302 28.7456 12.2264 28.7745 12.1591C28.8051 12.0934 28.8591 12.0415 28.9258 12.0134C28.9926 11.9853 29.0674 11.983 29.1357 12.0069C29.1351 12.0041 29.1368 12.0012 29.1371 11.9985L29.0507 11.944C28.9917 11.9082 28.9469 11.853 28.9238 11.7879C28.9008 11.7228 28.9009 11.6518 28.9242 11.5868C28.9397 11.5463 28.964 11.5099 28.9953 11.4799C29.0266 11.45 29.0641 11.4274 29.1052 11.4137C29.1463 11.4001 29.1899 11.3957 29.2329 11.4009C29.2758 11.4062 29.3171 11.4209 29.3538 11.444L29.5532 11.57C29.5537 11.5688 29.5532 11.5675 29.5537 11.5665C29.5542 11.5654 29.5565 11.5649 29.5575 11.5636C29.5107 11.5167 29.4812 11.4554 29.4738 11.3895C29.4664 11.3237 29.4816 11.2573 29.5169 11.2013C29.5987 11.0506 29.8089 11.0681 29.9379 11.1495L30.3243 11.4376C30.3839 11.482 30.4316 11.5405 30.4631 11.6079C30.4946 11.6752 30.509 11.7493 30.5049 11.8235C30.4706 12.466 30.3406 14.1422 29.9291 13.8818L28.916 13.2421C28.8573 13.203 28.8134 13.1455 28.7911 13.0786C28.7689 13.0117 28.7695 12.9393 28.7931 12.8728Z" fill="#E98862"/>
<path d="M29.0364 12.9895C28.9495 12.9896 28.866 12.956 28.8035 12.8957L27.3965 11.5431C27.3642 11.5127 27.3382 11.4761 27.3202 11.4356C27.3021 11.395 27.2922 11.3513 27.2911 11.3069C27.29 11.2625 27.2978 11.2184 27.3138 11.177C27.3299 11.1356 27.354 11.0978 27.3848 11.0658C27.4156 11.0338 27.4524 11.0082 27.4931 10.9905C27.5338 10.9728 27.5776 10.9633 27.622 10.9627C27.6664 10.962 27.7105 10.9702 27.7517 10.9866C27.793 11.0031 27.8305 11.0276 27.8622 11.0587L29.0306 12.1817L31.9593 9.22648C31.9904 9.19513 32.0273 9.1702 32.068 9.15313C32.1087 9.13605 32.1524 9.12716 32.1965 9.12696C32.2406 9.12675 32.2844 9.13525 32.3252 9.15195C32.3661 9.16865 32.4032 9.19323 32.4346 9.22429C32.4659 9.25535 32.4908 9.29228 32.5079 9.33298C32.525 9.37367 32.5339 9.41733 32.5341 9.46146C32.5343 9.50559 32.5258 9.54933 32.5091 9.59018C32.4924 9.63103 32.4678 9.66819 32.4368 9.69954L29.275 12.8898C29.2438 12.9214 29.2067 12.9465 29.1657 12.9637C29.1247 12.9808 29.0808 12.9896 29.0364 12.9895Z" fill="#0CBC8B"/>
<path d="M28.0672 12.1685C28.0742 12.1195 28.0912 12.0725 28.117 12.0304C28.1428 11.9882 28.1769 11.9517 28.2173 11.9232C28.2576 11.8946 28.3034 11.8746 28.3518 11.8643C28.4001 11.8541 28.4501 11.8537 28.4986 11.8634C28.5917 11.8854 28.6731 11.942 28.7262 12.0216C28.7793 12.1012 28.8002 12.1981 28.7847 12.2925L28.7746 12.8084C28.7725 12.9176 28.8103 13.0237 28.8811 13.1068C28.9518 13.1899 29.0506 13.2443 29.1586 13.2596C29.2645 13.2746 29.3723 13.2511 29.4624 13.1934C29.5525 13.1357 29.6189 13.0476 29.6495 12.9451L29.9127 12.0645L29.6265 11.6371C29.7266 11.4758 29.8106 11.0587 29.9841 11.1829C30.1309 11.2742 30.4641 11.4948 30.5554 11.7038C30.5571 11.7046 30.7278 13.498 30.6349 13.6475L29.8135 15.8449C29.4194 16.4794 27.5176 15.9884 27.5176 15.9884L28.0672 12.1685Z" fill="#E98862"/>
<path d="M29.0312 12.1817L31.9599 9.22648C31.991 9.19513 32.0279 9.1702 32.0686 9.15313C32.1093 9.13605 32.153 9.12716 32.1971 9.12696C32.2412 9.12675 32.285 9.13525 32.3258 9.15195C32.3667 9.16865 32.4038 9.19323 32.4352 9.22429C32.4665 9.25535 32.4914 9.29228 32.5085 9.33298C32.5256 9.37367 32.5345 9.41733 32.5347 9.46146C32.5349 9.50559 32.5264 9.54933 32.5097 9.59018C32.493 9.63103 32.4684 9.66819 32.4374 9.69954L29.2756 12.8898" fill="#0CBC8B"/>
<path d="M14.0843 27.4558L25.937 26.4583C26.8097 26.4813 27.5696 25.7557 27.8897 24.9414L30.995 15.2082L26.9328 13.6113L24.1916 21.9487L13.7676 22.6783L14.0843 27.4558Z" fill="#367CFF"/>
<path d="M7.20113 73.2832C7.20113 73.2832 7.58044 75.249 9.42135 75.3589C11.2623 75.4688 10.8631 76.935 10.8631 76.935H3.82812V73.4202L7.20113 73.2832Z" fill="#367CFF"/>
<path d="M5.03119 37.416C5.03119 37.416 5.05328 36.825 5.04858 38.1657C5.03119 43.1668 4.94441 48.8791 4.73236 52.2219C4.39154 57.5955 3.51758 74.5373 3.51758 74.5373L8.14032 74.4985L12.6207 37.2129L5.03119 37.416Z" fill="#262626"/>
<path d="M10.252 43.3145C10.252 43.3145 10.4435 46.9437 10.4788 47.7956C10.5609 49.7661 10.5895 51.8062 10.5895 54.1193L11.3184 48.0554C11.3184 48.0554 10.7852 46.1551 10.252 43.3145Z" fill="#0A0A0A"/>
<path d="M15.4316 73.2832C15.4316 73.2832 15.8109 75.249 17.6518 75.3589C19.4927 75.4688 19.0935 76.935 19.0935 76.935H12.0586V73.4202L15.4316 73.2832Z" fill="#367CFF"/>
<path d="M17.6696 37.8052C17.6696 37.8052 18.079 54.8976 18.0191 55.733L16.3 74.4084L11.7536 74.4924L12.1966 55.0573C12.1966 55.0573 11.8841 49.6961 10.5888 44.7178C9.92603 42.1628 9.52716 39.5466 9.39844 36.9102L17.6696 37.8052Z" fill="#262626"/>
<path d="M4.97997 37.4162L4.96484 37.417C4.96484 37.417 4.97585 37.1253 4.97997 37.4162Z" fill="#333333"/>
<path d="M18.3188 28.8215C18.2235 29.9415 17.7597 36.4251 17.6681 37.8047H5.0353C4.96397 36.5605 4.64347 31.1195 4.37288 28.6864C4.11455 26.3645 3.60771 25.202 3.97921 24.5156C4.58626 23.3937 6.24513 22.7455 7.37624 22.5924C8.06697 22.4988 13.9556 22.4316 13.9697 22.4316C14.4323 22.4316 17.1256 22.6491 17.721 23.1076C18.7983 23.9373 18.4853 26.8683 18.3188 28.8215Z" fill="#367CFF"/>
<path d="M18.495 27.1184C18.5058 27.1184 18.5161 27.1143 18.5239 27.1069C18.5317 27.0996 18.5364 27.0895 18.537 27.0788L18.6389 25.4682C18.6396 25.4571 18.6358 25.4462 18.6284 25.4379C18.621 25.4296 18.6106 25.4245 18.5995 25.4239C18.5884 25.4234 18.5775 25.4272 18.5692 25.4346C18.561 25.442 18.5559 25.4523 18.5551 25.4634L18.4532 27.0739C18.4526 27.085 18.4564 27.096 18.4638 27.1043C18.4712 27.1126 18.4816 27.1176 18.4927 27.1183L18.495 27.1184Z" fill="#0C0C0C"/>
<path d="M2.30562 37.7315C1.93411 37.7314 1.56812 37.6415 1.2388 37.4695C0.90948 37.2975 0.626578 37.0486 0.414164 36.7438C0.20175 36.439 0.0661109 36.0873 0.0187879 35.7189C-0.0285352 35.3504 0.0138585 34.9759 0.142362 34.6273C0.272494 34.2734 3.33214 26.1712 3.91442 24.6699L8.22741 26.4173C7.89977 27.2614 6.7133 30.4608 5.75995 33.0383L7.34371 32.8661L7.84223 37.4518L2.55505 37.7179C2.47221 37.7269 2.38895 37.7314 2.30562 37.7315Z" fill="#367CFF"/>
<path d="M15.4762 22.278C15.4621 22.2761 15.0746 23.7344 12.0505 23.5074C9.95694 23.3505 9.44616 21.9256 9.39844 21.9256C9.62417 21.8776 9.99079 21.8278 10.091 21.7743C10.4207 21.5972 10.6609 21.3816 10.7817 20.9188C10.8762 20.5569 10.9245 19.1638 10.9245 18.4648L14.146 19.1888C14.1011 19.9772 13.7868 21.8051 14.8883 22.1286C15.0716 22.182 15.269 22.2312 15.4762 22.278Z" fill="#E98862"/>
<path d="M14.0337 20.7388C12.7637 20.839 11.1322 20.3027 10.8223 18.6083L10.5427 17.0794C10.2328 15.385 10.8715 13.8486 12.4669 13.5568C14.0623 13.265 15.506 14.4206 15.8158 16.115L15.9397 16.7919C16.0585 17.4421 16.2996 20.56 14.0337 20.7388Z" fill="#E98862"/>
<path d="M15.2114 19.1834C14.9835 18.038 14.8789 17.2738 14.8911 16.4676C15.2122 15.9047 15.1277 15.2579 15.0547 14.9786C15.2759 15.119 15.5359 15.1857 15.7973 15.169C15.7973 15.169 15.2663 13.0378 13.4614 12.4644C13.1295 12.3352 12.2821 12.1721 11.1569 12.3264C10.2 12.4576 7.84095 13.1731 7.5039 15.829V15.8305C7.49281 15.9186 7.26632 18.3656 6.81502 19.5396C6.20805 21.1178 5.35576 21.6082 5.37736 23.4293C5.40516 25.7716 9.71127 26.0834 12.3082 25.9082C14.9051 25.7329 16.3553 24.879 16.3743 23.1909C16.3949 21.2994 15.6676 21.4751 15.2114 19.1834Z" fill="#0A0A0A"/>
<path d="M4.76755 28.7315L4.68359 28.7344L4.99399 37.8045L5.07795 37.8016L4.76755 28.7315Z" fill="#0C0C0C"/>
<path d="M80.2706 76.9926H1.26584C1.25024 76.9926 1.23528 76.9864 1.22426 76.9754C1.21323 76.9644 1.20703 76.9494 1.20703 76.9338C1.20703 76.9182 1.21323 76.9033 1.22426 76.8922C1.23528 76.8812 1.25024 76.875 1.26584 76.875H80.2706C80.2862 76.875 80.3011 76.8812 80.3121 76.8922C80.3232 76.9033 80.3294 76.9182 80.3294 76.9338C80.3294 76.9494 80.3232 76.9644 80.3121 76.9754C80.3011 76.9864 80.2862 76.9926 80.2706 76.9926Z" fill="#292A2E"/>
<path d="M72.1165 65.9836C72.0942 65.9836 72.0728 65.9747 72.0571 65.959C71.9387 65.8406 71.7458 63.6689 71.2262 57.2031C71.0135 54.5575 70.8126 52.0586 70.6661 50.5398C70.6556 50.4314 70.6136 50.4188 70.5997 50.4147C70.3991 50.3541 69.7888 50.8353 69.4482 51.2566C69.4412 51.2652 69.4327 51.2723 69.423 51.2776C69.4133 51.2829 69.4026 51.2862 69.3917 51.2873C69.3807 51.2885 69.3696 51.2875 69.359 51.2843C69.3484 51.2812 69.3386 51.276 69.33 51.2691C69.3214 51.2621 69.3143 51.2536 69.309 51.2439C69.3038 51.2342 69.3005 51.2236 69.2993 51.2126C69.2981 51.2016 69.2991 51.1905 69.3023 51.1799C69.3054 51.1694 69.3106 51.1595 69.3175 51.1509C69.5428 50.8724 70.277 50.1421 70.648 50.2537C70.7228 50.2762 70.816 50.3412 70.8333 50.5237C70.98 52.0437 71.1809 54.5433 71.3936 57.1897C71.7095 61.1188 72.0672 65.5702 72.1847 65.8505C72.1937 65.8631 72.1991 65.8779 72.2003 65.8933C72.2014 65.9087 72.1983 65.9241 72.1913 65.9379C72.1842 65.9517 72.1735 65.9632 72.1603 65.9713C72.1471 65.9793 72.132 65.9836 72.1165 65.9836Z" fill="#494949"/>
<path d="M70.4498 53.3266C71.8439 52.2092 72.3059 50.4699 71.4818 49.4418C70.6578 48.4138 68.8596 48.4862 67.4656 49.6036C66.0715 50.7211 65.6095 52.4604 66.4335 53.4885C67.2576 54.5165 69.0558 54.4441 70.4498 53.3266Z" fill="#0CBC8B"/>
<path opacity="0.2" d="M70.4498 53.3266C71.8439 52.2092 72.3059 50.4699 71.4818 49.4418C70.6578 48.4138 68.8596 48.4862 67.4656 49.6036C66.0715 50.7211 65.6095 52.4604 66.4335 53.4885C67.2576 54.5165 69.0558 54.4441 70.4498 53.3266Z" fill="white"/>
<path d="M66.8251 53.7506C66.8172 53.7505 66.8094 53.7483 66.8026 53.744C66.7959 53.7397 66.7906 53.7336 66.7872 53.7264C66.7838 53.7192 66.7825 53.7111 66.7835 53.7032C66.7845 53.6953 66.7878 53.6879 66.7929 53.6818L70.7658 48.8907C70.7693 48.8864 70.7736 48.8828 70.7785 48.8801C70.7834 48.8774 70.7888 48.8758 70.7943 48.8752C70.7999 48.8747 70.8055 48.8752 70.8108 48.8768C70.8162 48.8785 70.8211 48.8811 70.8254 48.8847C70.8297 48.8883 70.8332 48.8926 70.8358 48.8976C70.8384 48.9025 70.84 48.908 70.8404 48.9135C70.8409 48.9191 70.8402 48.9247 70.8385 48.93C70.8368 48.9353 70.834 48.9402 70.8304 48.9444L66.8575 53.7354C66.8535 53.7402 66.8486 53.744 66.843 53.7466C66.8374 53.7492 66.8313 53.7506 66.8251 53.7506Z" fill="white"/>
<path d="M72.9824 64.9566C72.969 64.9566 72.9558 64.9534 72.9439 64.9472C72.932 64.9411 72.9217 64.9321 72.914 64.9212C72.9062 64.9103 72.9012 64.8977 72.8993 64.8844C72.8974 64.8711 72.8987 64.8576 72.9031 64.8449L74.3954 60.5531C74.4393 60.427 74.5142 60.3139 74.6132 60.2243C74.7121 60.1346 74.832 60.0712 74.9618 60.0399C75.0916 60.0085 75.2272 60.0103 75.3562 60.0449C75.4852 60.0796 75.6034 60.1461 75.7 60.2382L76.4889 60.9922C76.505 61.0076 76.5144 61.0288 76.5149 61.0511C76.5154 61.0733 76.507 61.0949 76.4916 61.111C76.4762 61.1271 76.455 61.1365 76.4328 61.137C76.4105 61.1375 76.3889 61.1291 76.3728 61.1137L75.5839 60.36C75.5076 60.2873 75.4143 60.2349 75.3125 60.2075C75.2107 60.1802 75.1037 60.1788 75.0012 60.2035C74.8988 60.2282 74.8041 60.2783 74.726 60.349C74.6479 60.4198 74.5888 60.509 74.5541 60.6085L73.0617 64.9001C73.056 64.9166 73.0453 64.9309 73.0311 64.941C73.0169 64.9511 72.9999 64.9566 72.9824 64.9566Z" fill="#494949"/>
<path d="M78.6928 63.3678C79.7259 62.55 79.6645 60.7515 78.5557 59.3506C77.4468 57.9497 75.7104 57.477 74.6773 58.2947C73.6442 59.1125 73.7055 60.911 74.8144 62.3119C75.9233 63.7128 77.6597 64.1855 78.6928 63.3678Z" fill="#0CBC8B"/>
<path d="M71.4377 65.7091C71.4188 65.7091 71.4005 65.7028 71.3857 65.691C71.3709 65.6793 71.3604 65.663 71.3561 65.6446L68.8517 55.1733C68.8346 55.1019 68.7982 55.0366 68.7464 54.9846C68.6945 54.9326 68.6294 54.8958 68.5581 54.8785C68.4867 54.8611 68.412 54.8637 68.3421 54.8861C68.2722 54.9085 68.2098 54.9497 68.1617 55.0052L67.3898 55.8973C67.3752 55.9142 67.3545 55.9246 67.3323 55.9262C67.3101 55.9278 67.2881 55.9205 67.2712 55.9059C67.2544 55.8913 67.244 55.8706 67.2424 55.8484C67.2408 55.8262 67.2481 55.8042 67.2627 55.7874L68.0347 54.8953C68.103 54.8164 68.1917 54.7578 68.2911 54.7261C68.3905 54.6944 68.4967 54.6907 68.598 54.7154C68.6994 54.7401 68.7919 54.7923 68.8655 54.8663C68.9391 54.9402 68.9909 55.0331 69.0151 55.1345L71.5196 65.6059C71.5225 65.6182 71.5226 65.6311 71.5199 65.6435C71.5172 65.6559 71.5117 65.6676 71.5038 65.6775C71.4959 65.6875 71.4859 65.6956 71.4744 65.7011C71.463 65.7066 71.4504 65.7095 71.4377 65.7095V65.7091Z" fill="#494949"/>
<path d="M70.4647 58.2263C70.7684 56.4664 69.9625 54.8582 68.6647 54.6342C67.3668 54.4102 66.0685 55.6553 65.7648 57.4151C65.4611 59.1749 66.2669 60.7831 67.5648 61.0071C68.8626 61.2311 70.1609 59.9861 70.4647 58.2263Z" fill="#0CBC8B"/>
<path d="M72.1154 65.984C72.1119 65.984 72.1084 65.9837 72.105 65.9833C72.094 65.982 72.0834 65.9785 72.0738 65.973C72.0642 65.9676 72.0558 65.9603 72.049 65.9516C72.0422 65.9429 72.0372 65.933 72.0343 65.9223C72.0313 65.9117 72.0305 65.9006 72.0319 65.8896L73.6311 52.9053C73.6485 52.7638 73.7064 52.6304 73.7978 52.5211C73.8892 52.4118 74.0103 52.3312 74.1464 52.289C74.2825 52.2468 74.428 52.2449 74.5652 52.2834C74.7024 52.3219 74.8256 52.3992 74.9199 52.506L76.7478 54.5762C76.7626 54.593 76.7701 54.6148 76.7687 54.6371C76.7673 54.6594 76.7572 54.6802 76.7404 54.6949C76.7237 54.7097 76.7018 54.7172 76.6796 54.7158C76.6573 54.7144 76.6365 54.7043 76.6218 54.6876L74.7939 52.6173C74.721 52.5347 74.6258 52.475 74.5198 52.4452C74.4137 52.4155 74.3013 52.417 74.1961 52.4495C74.0909 52.4821 73.9973 52.5444 73.9267 52.6289C73.856 52.7134 73.8112 52.8165 73.7978 52.9258L72.1986 65.9102C72.1961 65.9306 72.1863 65.9493 72.171 65.9629C72.1556 65.9764 72.1359 65.984 72.1154 65.984Z" fill="#494949"/>
<path d="M78.6229 55.7257C79.2607 54.5727 78.5103 52.937 76.9469 52.0722C75.3835 51.2074 73.5992 51.441 72.9614 52.594C72.3236 53.747 73.074 55.3827 74.6374 56.2475C76.2008 57.1123 77.9852 56.8786 78.6229 55.7257Z" fill="#0CBC8B"/>
<path opacity="0.2" d="M78.6928 63.3678C79.7259 62.55 79.6645 60.7515 78.5557 59.3506C77.4468 57.9497 75.7104 57.477 74.6773 58.2947C73.6442 59.1125 73.7055 60.911 74.8144 62.3119C75.9233 63.7128 77.6597 64.1855 78.6928 63.3678Z" fill="white"/>
<path opacity="0.5" d="M70.4647 58.2263C70.7684 56.4664 69.9625 54.8582 68.6647 54.6342C67.3668 54.4102 66.0685 55.6553 65.7648 57.4151C65.4611 59.1749 66.2669 60.7831 67.5648 61.0071C68.8626 61.2311 70.1609 59.9861 70.4647 58.2263Z" fill="white"/>
<path opacity="0.5" d="M78.6229 55.7257C79.2607 54.5727 78.5103 52.937 76.9469 52.0722C75.3835 51.2074 73.5992 51.441 72.9614 52.594C72.3236 53.747 73.074 55.3827 74.6374 56.2475C76.2008 57.1123 77.9852 56.8786 78.6229 55.7257Z" fill="white"/>
<path d="M74.1615 77.0012H70.0705L69.3926 63.9121H74.8394L74.1615 77.0012Z" fill="#292A2E"/>
<path opacity="0.3" d="M74.1615 77.0012H70.0705L69.3926 63.9121H74.8394L74.1615 77.0012Z" fill="white"/>
<path d="M78.6945 63.4091C78.6881 63.4091 78.6819 63.4077 78.6761 63.4049C78.6704 63.4021 78.6654 63.3981 78.6615 63.3931L74.6458 58.3201C74.6389 58.3113 74.6357 58.3002 74.637 58.2891C74.6383 58.2781 74.6439 58.2679 74.6527 58.261C74.6614 58.2541 74.6726 58.2509 74.6836 58.2522C74.6947 58.2535 74.7048 58.2592 74.7117 58.2679L78.7274 63.341C78.7323 63.3471 78.7354 63.3546 78.7363 63.3624C78.7372 63.3703 78.7358 63.3782 78.7324 63.3853C78.7289 63.3924 78.7236 63.3984 78.7169 63.4026C78.7102 63.4068 78.7024 63.4091 78.6945 63.4091Z" fill="white"/>
<path d="M78.3563 56.1331C78.3474 56.1329 78.3387 56.13 78.3316 56.1247L73.193 52.3728C73.1886 52.3696 73.1848 52.3655 73.1819 52.3608C73.179 52.3561 73.1771 52.3508 73.1763 52.3454C73.1754 52.3399 73.1757 52.3344 73.177 52.329C73.1783 52.3236 73.1806 52.3186 73.1839 52.3141C73.1871 52.3097 73.1912 52.3059 73.1959 52.303C73.2006 52.3001 73.2059 52.2982 73.2113 52.2974C73.2168 52.2965 73.2224 52.2968 73.2277 52.2981C73.2331 52.2994 73.2381 52.3017 73.2426 52.305L78.3815 56.0571C78.3885 56.0624 78.3938 56.0698 78.3964 56.0782C78.399 56.0866 78.3989 56.0956 78.3961 56.104C78.3933 56.1124 78.388 56.1196 78.3808 56.1248C78.3737 56.1299 78.3651 56.1327 78.3563 56.1327V56.1331Z" fill="white"/>
<path d="M67.4034 60.9498C67.3997 60.9498 67.3961 60.9493 67.3925 60.9484C67.3817 60.9455 67.3725 60.9385 67.367 60.9288C67.3614 60.9192 67.3599 60.9077 67.3628 60.897L68.9986 54.7682C68.9999 54.7628 69.0024 54.7577 69.0057 54.7532C69.009 54.7487 69.0132 54.745 69.018 54.7422C69.0228 54.7393 69.0281 54.7375 69.0337 54.7367C69.0392 54.736 69.0448 54.7363 69.0502 54.7378C69.0556 54.7392 69.0606 54.7417 69.065 54.7451C69.0694 54.7485 69.0731 54.7528 69.0759 54.7576C69.0786 54.7625 69.0804 54.7678 69.0811 54.7733C69.0817 54.7789 69.0813 54.7845 69.0797 54.7898L67.4439 60.9186C67.4415 60.9276 67.4363 60.9355 67.4289 60.9411C67.4216 60.9467 67.4126 60.9498 67.4034 60.9498Z" fill="white"/>
</g>
<defs>
<clipPath id="clip0_3395_122765">
<rect width="82.1836" height="77" fill="white"/>
</clipPath>
</defs>
</svg>
